# xmcd
#
# Track frame offsets: 
#        150
#        30694
#        57582
#        83423
#        109149
#        136210
#        160069
#        188290
#        216331
#        245071
#
# Disc length: 3601 seconds
#
# Revision: 0
# Processed by: cddbd v1.5.2PL0 Copyright (c) Steve Scherf et al.
# Submitted via: ExactAudioCopy v1.0b3
#
DISCID=810e0f0a
DTITLE=Manh Quynh, Luu My Linh - Tuyet Pham Song Ca
DYEAR=1996
DGENRE=
TTITLE0=Manh Quynh, Huong Lan - Pho dem
TTITLE1=Manh Quynh - Dem nho nguoi tinh
TTITLE2=Neu ai co hoi
TTITLE3=Luu My Linh - Ke den sau
TTITLE4=Khong phai tai chung minh
TTITLE5=Manh Quynh - Ai thuong yeu em
TTITLE6=Duong tinh doi nga
TTITLE7=Luu My Linh - Nguoi lu khach
TTITLE8=Manh Quynh, Huong Lan - Hoa no ve dem
TTITLE9=Manh Quynh - Mang tron niem dau
EXTD=
EXTT0=
EXTT1=
EXTT2=
EXTT3=
EXTT4=
EXTT5=
EXTT6=
EXTT7=
EXTT8=
EXTT9=
PLAYORDER=
